<?xml version="1.0" encoding="utf-8"?>
<!-- Generator: Adobe Illustrator 19.0.0, SVG Export Plug-In . SVG Version: 6.00 Build 0)  -->
<svg version="1.1" id="Layer_1" xmlns="http://www.w3.org/2000/svg" xmlns:xlink="http://www.w3.org/1999/xlink" x="0px" y="0px" width='20' height='20'
	 viewBox="0 0 512 512" style="enable-background:new 0 0 512 512;" xml:space="preserve">
<g id="XMLID_1_">
	<path id="XMLID_3_" d="M159.3,512c-34.4-70.7-15.8-111.7,10.2-149.9c28.9-41.9,36.3-83.8,36.3-83.8s22.3,29.8,14,75.4
		c40-44.7,47.5-115.4,41-142.4c90.3,63.3,128.5,199.2,76.3,300.7C613.6,355.6,406,121.9,369.7,95.9c12.1,26.1,14,70.7-10.2,92.2
		C318.5,31.7,216.1,0,216.1,0c12.1,80.1-43.8,168.5-97.7,234.6c-1.9-31.7-3.7-54-20.5-84.7C94.2,208.5,49.5,256,37.4,314.6
		C21.6,392.8,50.4,450.6,159.3,512L159.3,512z"/>
</g>
</svg>
