<svg width="9" height="9" viewBox="0 0 9 9" fill="none" xmlns="http://www.w3.org/2000/svg">
<path d="M8.415 4.67156L7.57125 2.70281C7.54972 2.65198 7.5137 2.6086 7.46769 2.57809C7.42168 2.54759 7.36771 2.53129 7.3125 2.53125H6.46875V1.96875C6.46875 1.89416 6.43912 1.82262 6.38637 1.76988C6.33363 1.71713 6.26209 1.6875 6.1875 1.6875H0.84375C0.769158 1.6875 0.697621 1.71713 0.644876 1.76988C0.592132 1.82262 0.5625 1.89416 0.5625 1.96875V6.75C0.5625 6.82459 0.592132 6.89613 0.644876 6.94887C0.697621 7.00162 0.769158 7.03125 0.84375 7.03125H1.44562C1.51039 7.26957 1.65178 7.47996 1.84798 7.62996C2.04418 7.77995 2.28428 7.86122 2.53125 7.86122C2.77822 7.86122 3.01832 7.77995 3.21452 7.62996C3.41072 7.47996 3.55211 7.26957 3.61687 7.03125H5.38312C5.44789 7.26957 5.58928 7.47996 5.78548 7.62996C5.98168 7.77995 6.22178 7.86122 6.46875 7.86122C6.71572 7.86122 6.95582 7.77995 7.15202 7.62996C7.34822 7.47996 7.48961 7.26957 7.55438 7.03125H8.15625C8.23084 7.03125 8.30238 7.00162 8.35512 6.94887C8.40787 6.89613 8.4375 6.82459 8.4375 6.75V4.78125C8.43743 4.74355 8.42978 4.70625 8.415 4.67156ZM6.46875 3.09375H7.12687L7.72875 4.5H6.46875V3.09375ZM2.53125 7.3125C2.42 7.3125 2.31124 7.27951 2.21874 7.2177C2.12624 7.15589 2.05414 7.06804 2.01157 6.96526C1.96899 6.86248 1.95785 6.74938 1.97956 6.64026C2.00126 6.53115 2.05484 6.43092 2.1335 6.35225C2.21217 6.27358 2.3124 6.22001 2.42151 6.19831C2.53063 6.1766 2.64373 6.18774 2.74651 6.23032C2.84929 6.27289 2.93714 6.34499 2.99895 6.43749C3.06076 6.52999 3.09375 6.63875 3.09375 6.75C3.09375 6.89918 3.03449 7.04226 2.929 7.14775C2.82351 7.25324 2.68043 7.3125 2.53125 7.3125ZM5.38312 6.46875H3.61687C3.55211 6.23043 3.41072 6.02004 3.21452 5.87004C3.01832 5.72005 2.77822 5.63878 2.53125 5.63878C2.28428 5.63878 2.04418 5.72005 1.84798 5.87004C1.65178 6.02004 1.51039 6.23043 1.44562 6.46875H1.125V2.25H5.90625V5.7825C5.77818 5.85683 5.66605 5.95571 5.57628 6.07347C5.48651 6.19124 5.42087 6.32556 5.38312 6.46875ZM6.46875 7.3125C6.3575 7.3125 6.24874 7.27951 6.15624 7.2177C6.06374 7.15589 5.99164 7.06804 5.94907 6.96526C5.90649 6.86248 5.89535 6.74938 5.91706 6.64026C5.93876 6.53115 5.99234 6.43092 6.071 6.35225C6.14967 6.27358 6.2499 6.22001 6.35901 6.19831C6.46813 6.1766 6.58123 6.18774 6.68401 6.23032C6.78679 6.27289 6.87464 6.34499 6.93645 6.43749C6.99826 6.52999 7.03125 6.63875 7.03125 6.75C7.03125 6.89918 6.97199 7.04226 6.8665 7.14775C6.76101 7.25324 6.61793 7.3125 6.46875 7.3125ZM7.875 6.46875H7.55438C7.49218 6.22787 7.35189 6.01439 7.15546 5.86172C6.95903 5.70906 6.71753 5.62581 6.46875 5.625V5.0625H7.875V6.46875Z" fill="white"/>
</svg>
