<svg width="20" height="20" viewBox="0 0 16 16"  xmlns="http://www.w3.org/2000/svg">
<path fill-rule="evenodd" clip-rule="evenodd" d="M7.33329 1.66675C10.4629 1.66675 13 4.2038 13 7.33342C13 8.51634 12.6375 9.6146 12.0176 10.5232L14.2784 12.7841C14.4086 12.9143 14.4086 13.1254 14.2784 13.2556L13.7127 13.8212C13.5825 13.9514 13.3715 13.9514 13.2413 13.8212L11.0399 11.6198C10.0463 12.4798 8.75055 13.0001 7.33329 13.0001C4.20368 13.0001 1.66663 10.463 1.66663 7.33342C1.66663 4.2038 4.20368 1.66675 7.33329 1.66675ZM7.33328 3.06676C4.97686 3.06676 3.06661 4.97701 3.06661 7.33343C3.06661 9.68984 4.97686 11.6001 7.33328 11.6001C9.68969 11.6001 11.5999 9.68984 11.5999 7.33343C11.5999 4.97701 9.68969 3.06676 7.33328 3.06676Z" fill="current"/>
</svg>
